HIERARCHY
ROOT base
{
	OFFSET 0.0 0.0 0.0
	CHANNELS 6 Xposition Yposition Zposition Zrotation Yrotation Xrotation
	JOINT root
	{
		OFFSET 0 0 0
		CHANNELS 6 Xposition Yposition Zposition Zrotation Yrotation Xrotation
		JOINT chest
		{
			OFFSET 0 4.72302 0
			CHANNELS 3 Zrotation Yrotation Xrotation
			JOINT neck
			{
				OFFSET 0 4.47788 0
				CHANNELS 3 Zrotation Yrotation Xrotation
				End Site
				{
					OFFSET 0.0 0.0 0.0
				}
			}
			JOINT right_shoulder
			{
				OFFSET -0.481 4.87 3.6622
				CHANNELS 3 Zrotation Yrotation Xrotation
				JOINT right_elbow
				{
					OFFSET 0 -5.49576 0
					CHANNELS 3 Zrotation Yrotation Xrotation
					JOINT right_wrist
					{
						OFFSET 0 -5.17894 0
						CHANNELS 3 Zrotation Yrotation Xrotation
						End Site
						{
							OFFSET 0.0 0.0 0.0
						}
					}
				}
			}
			JOINT left_shoulder
			{
				OFFSET -0.481 4.87 -3.6622
				CHANNELS 3 Zrotation Yrotation Xrotation
				JOINT left_elbow
				{
					OFFSET 0 -5.49576 0
					CHANNELS 3 Zrotation Yrotation Xrotation
					JOINT left_wrist
					{
						OFFSET 0 -5.17894 0
						CHANNELS 3 Zrotation Yrotation Xrotation
						End Site
						{
							OFFSET 0.0 0.0 0.0
						}
					}
				}
			}
		}
		JOINT right_hip
		{
			OFFSET 0 0 1.69774
			CHANNELS 3 Zrotation Yrotation Xrotation
			JOINT right_knee
			{
				OFFSET 0 -8.43092 0
				CHANNELS 3 Zrotation Yrotation Xrotation
				JOINT right_ankle
				{
					OFFSET 0 -8.1974 0
					CHANNELS 3 Zrotation Yrotation Xrotation
					End Site
					{
						OFFSET 0.0 0.0 0.0
					}
				}
			}
		}
		JOINT left_hip
		{
			OFFSET 0 0 -1.69774
			CHANNELS 3 Zrotation Yrotation Xrotation
			JOINT left_knee
			{
				OFFSET 0 -8.43092 0
				CHANNELS 3 Zrotation Yrotation Xrotation
				JOINT left_ankle
				{
					OFFSET 0 -8.1974 0
					CHANNELS 3 Zrotation Yrotation Xrotation
					End Site
					{
						OFFSET 0.0 0.0 0.0
					}
				}
			}
		}
	}
	JOINT red_arrow
	{
		OFFSET 0 0 0
		CHANNELS 3 Zrotation Yrotation Xrotation
		End Site
		{
			OFFSET 0.0 0.0 0.0
		}
	}
	JOINT blue_arrow
	{
		OFFSET 0 0 0
		CHANNELS 3 Zrotation Yrotation Xrotation
		End Site
		{
			OFFSET 0.0 0.0 0.0
		}
	}
}
MOTION
Frames: 12
Frame Time: 0.0333333333333333
0 18.08466 0 0 0 0 0 0 0 0 -90 0 0 0 0 0 0 0 0 0 -90 0 0 0 0 0 0 0 0 90 0 0 0 0 0 0 0 0 0 0 0 0 0 0 0 0 0 0 0 0 0 0 0 0 0 0 0 0 0 0
0.546172201633453 0 0.0775553751736879 0 0.988108300155756 0 0 17.015951192379 0 -7.62582690201153 1.11816375520202E-16 1.30064361080588 -2.93923761085393 -5.41100864916532 -0.608325977331798 0.914161464812233 -0.193899764409568 0.162088936672286 -10.8359330401112 4.63123984612385 -3.92904596494261 9.35271804937645 0 0 0 0 0 8.90571795680944 -19.5719245027586 19.5114393060478 38.1331407965725 0 0 0 0 0 30.7005772176262 -7.01459979812476 1.83290637087064 -16.3662107136921 0 0 -7.41431174994637 6.69755097682964 0.196549396894021 -3.57486650668331 6.07817902797495 -1.80981060561672 -29.2396539311365 0 0 -1.35951452478078 -2.18720919850185 1.12058104422652 0 0 0 0 0 0
1.22177089750767 0 0.125751863140613 0 0.91945718355223 0 0 17.0281168580055 0 -8.90102770044473 -1.28866812042581 0.41181414185391 -4.55925737293511 -4.40788087174737 -0.960185127234909 -3.55196721970082 -0.787887946868541 -0.892265947538015 -7.50313018824963 4.06269158361393 -2.69462102236268 5.46206812831335 0 0 0 0 0 9.44859654383473 -20.9294933598718 19.3507051793647 38.9808731405032 0 0 0 0 0 28.7061022421249 -6.19484209810437 3.7893537315013 -15.3199896573862 0 0 -5.28171534449121 7.99244855845215 -5.94046606865007 -1.21292940968354 5.12576694359429 -0.946904995928037 -33.0877210378191 0 0 -11.1465097382875 -1.84199451426542 2.26366497672962 0 0 0 0 0 0
1.8779762417078 0 0.1904556568712 0 0.822596590386177 0 0 17.1783816218376 0 -9.99239055766668 -1.81245338862651 -0.819069486878743 -6.10531121906483 -4.26410631242159 -1.5041754972172 -4.52050375738937 -0.846434452316073 -0.898764810271166 -5.29671565660543 3.10778337950301 -1.98429711178489 5.05946262768695 0 0 0 0 0 9.13716382329695 -17.4020463946331 16.040317357733 40.5950722376199 0 0 0 0 0 25.5707475329964 -5.45310983888216 5.61994586479759 -11.7038330862349 0 0 -4.76790365457079 7.58714121506033 -5.81686174372729 5.08644930372729 4.02887495895822 0.670893224203788 -42.6119929485788 0 0 -25.6251878886197 -1.30086827434927 5.25531182942282 0 0 0 0 0 0
2.66852947771549 0 0.207769452780485 0 0.732530839966977 0 0 17.3341954112053 0 -9.35307359349184 -1.68851248079104 -1.91242683042356 -6.55182689617247 -3.3882146624259 -1.71428042110916 -5.79758255212906 -0.842983010611162 -1.21675803346123 -4.2193861519201 4.99641447293401 -2.91930745299613 7.69602834543317 0 0 0 0 0 7.67486654762305 -13.4432508155346 11.693576277266 40.2231786825964 0 0 0 0 0 19.5822046948302 -3.73290401374659 6.948157279416 -6.34421438037717 0 0 -4.61901600468466 6.09396171051374 -5.36984568414986 11.5746304255564 3.13250436449847 2.68038334769179 -56.7505733229644 0 0 -28.6522506877993 -1.38669892979727 5.30442809791988 0 0 0 0 0 0
3.48140717744827 0 0.156784499809146 0 0.686276727836295 0 0 17.4344690918922 0 -8.676419938232 -0.868772419594047 -2.41793158956797 -5.06441100924321 -2.56286991399516 -1.42564250372579 -4.44054352341541 -0.567670261840897 -1.23403054143279 -3.21557257480573 8.26297391094336 -4.98583587879438 13.0073601751799 0 0 0 0 0 4.75544595105286 -7.25627034464958 8.124213946903 36.3570935368833 0 0 0 0 0 14.9781639201858 -3.02397269684956 7.06375448147121 -4.05672554384514 0 0 -2.84466590955937 5.4632165578988 -4.85195184408296 19.1284082228074 1.93821680476004 4.7324195542644 -71.1113739019964 0 0 -21.6592872523742 -1.29700703352554 3.84350882296612 0 0 0 0 0 0
4.30065870285034 0 0.0863897688686848 0 0.66071623756063 0 0 17.4868443727493 0 -7.42438421044279 -0.481577949794973 -2.49610112483513 -4.13582694497335 -1.81696642129288 -1.34004323899137 -2.03543535285744 -0.28672936174553 -0.854723510428744 -1.70876303538821 11.8885681556482 -7.25809421268295 18.9704132876035 0 0 0 0 0 0.135333682521448 0.419939473979245 6.8152460229364 33.0226395803127 0 0 0 0 0 10.8000786852863 -2.73396282082812 6.85479458650598 -3.83473030855456 0 0 -0.069978345587909 5.247157200447 -4.48378209695496 26.0729721641771 1.50526685101114 7.37274790109616 -81.9198135842722 0 0 -10.9076370726922 -1.69859179065917 3.07356524215909 0 0 0 0 0 0
5.10358318090439 0 -0.0461787328124046 0 0.626599382905757 0 0 17.5106765389442 0 -6.01235661232711 -0.644654894091329 -1.90600926506939 -3.39849000531787 -1.179610515363 -1.32104894027013 -0.116864869152447 -0.149992327095278 -0.494864259466314 -0.302081327989978 16.3554137529222 -10.320061392106 25.838463903733 0 0 0 0 0 -3.39276354245159 6.53711133878266 7.17550293584276 29.1594538499022 0 0 0 0 0 7.38947661849121 -2.35262304873194 5.82711538046914 -5.24852055636561 0 0 3.41549113476978 5.48134668120116 -3.93846170975318 31.2974354448344 1.28057371815737 9.04504049540839 -86.5109642915172 0 0 -1.14602889980182 -2.79378758225781 2.96168560861118 0 0 0 0 0 0
5.8530271217227 0 -0.205982463434339 0 0.575550666641096 0 0 17.4971564292908 0 -4.77111239196181 -0.966565379477346 -1.0833933646397 -3.08719128167091 -0.885258936238558 -1.32859367388982 0.876995153779981 -0.11267795171144 -0.0591390361028137 1.20096618216631 22.6057811770573 -14.8046508878621 32.3721562694227 0 0 0 0 0 -5.07014262674848 11.3761965631334 8.51954505700521 24.4485135774462 0 0 0 0 0 4.6946576218529 -2.79896967704253 4.39485516089637 -7.49938805300215 0 0 7.15063857897928 6.4979356934122 -3.25548669253657 35.5016027776767 1.50512898175715 9.98403282268073 -85.2662374473633 0 0 5.8129927327339 -3.63276456377158 2.64157855065505 0 0 0 0 0 0
6.54421862214804 0 -0.355654972139746 0 0.542591127853044 0 0 17.4535224199295 0 -4.24029563687925 -0.624517204426705 -0.374855537895594 -2.72203189561501 -0.739193916858979 -1.40700817355987 1.39252407034348 -0.109258900550129 0.320599720813178 2.13119598116513 27.6636033627696 -19.1322592966717 37.1577078208247 0 0 0 0 0 -5.56063414572628 15.8055747384384 10.3240633076644 18.4050665771705 0 0 0 0 0 2.50723996988702 -3.49623726371918 3.0840475126905 -8.99676274078123 0 0 10.3806849914295 6.92748140007635 -2.59354166315412 39.3725851879135 2.33663875561698 10.1165152426375 -78.1196192734822 0 0 11.6676809688464 -4.84568461051518 2.74012124528186 0 0 0 0 0 0
7.17665491402149 0 -0.470650859922171 0 0.55904743857982 0 0 17.3963842511177 0 -4.7575198780479 0.311592660208467 -0.303683391244806 -1.96411822483101 -0.551696260194292 -1.10802994898633 1.27381579327171 -0.07891926885721 0.390856969401052 2.19788549237892 31.7196236455146 -23.2973589766692 40.23384743808 0 0 0 0 0 -5.62706765561344 20.5672765773182 12.6225507490402 10.675274045349 0 0 0 0 0 -0.0322420106676879 -5.26687718073258 2.60546864075578 -7.48548178785201 0 0 11.9691096912478 7.86237238443033 -1.9099650577035 43.1697799959678 3.88276298266607 9.75793869178702 -66.7392127199203 0 0 16.4190183996977 -6.62488416379983 3.2671094183154 0 0 0 0 0 0
7.78711712658405 0 -0.579565179347992 0 0.622838105990112 0 0 17.3206520915031 0 -6.00875682456666 1.20536568680634 -0.681636647227751 -0.766072093054132 -0.182888091241317 -0.527096357521906 0.324647264144075 0.0292490641587392 -0.0669387914213505 1.84593361542215 34.1134972583399 -26.5819219962529 41.7909905499649 0 0 0 0 0 -5.73798080781857 23.6998179899855 14.1291782146821 1.49402330605242 0 0 0 0 0 -3.30351529197523 -7.99205541003671 2.86073683599129 -3.07370059939139 0 0 11.9632106426854 9.64774905630619 -1.02726922565229 45.9759887987824 5.6168032643122 8.92665060431784 -53.6315810988564 0 0 20.13157939287 -8.09587269974247 3.68605992622209 0 0 0 0 0 0
